<?xml version="1.0" encoding="UTF-8" standalone="no"?><!DOCTYPE svg PUBLIC "-//W3C//DTD SVG 1.1//EN" "http://www.w3.org/Graphics/SVG/1.1/DTD/svg11.dtd"><svg width="100%" height="100%" viewBox="0 0 242 181" version="1.1" xmlns="http://www.w3.org/2000/svg" xmlns:xlink="http://www.w3.org/1999/xlink" xml:space="preserve" xmlns:serif="http://www.serif.com/" style="fill-rule:evenodd;clip-rule:evenodd;stroke-linejoin:round;stroke-miterlimit:2;"><g id="hamburger"><path d="M241.667,20.885c-0,11.526 -9.358,20.885 -20.885,20.885l-199.897,-0c-11.527,-0 -20.885,-9.359 -20.885,-20.885c0,-11.527 9.358,-20.885 20.885,-20.885l199.897,0c11.527,0 20.885,9.358 20.885,20.885Z" style="fill:#727272;"/><path d="M241.667,90.306c-0,11.527 -9.358,20.885 -20.885,20.885l-199.897,-0c-11.527,-0 -20.885,-9.358 -20.885,-20.885c0,-11.527 9.358,-20.885 20.885,-20.885l199.897,0c11.527,0 20.885,9.358 20.885,20.885Z" style="fill:#727272;"/><path d="M241.667,159.727c-0,11.527 -9.358,20.885 -20.885,20.885l-199.897,-0c-11.527,-0 -20.885,-9.358 -20.885,-20.885c0,-11.527 9.358,-20.885 20.885,-20.885l199.897,0c11.527,0 20.885,9.358 20.885,20.885Z" style="fill:#727272;"/></g></svg>