<?xml version="1.0" encoding="UTF-8" standalone="no"?><!DOCTYPE svg PUBLIC "-//W3C//DTD SVG 1.1//EN" "http://www.w3.org/Graphics/SVG/1.1/DTD/svg11.dtd"><svg width="100%" height="100%" viewBox="0 0 168 168" version="1.1" xmlns="http://www.w3.org/2000/svg" xmlns:xlink="http://www.w3.org/1999/xlink" xml:space="preserve" xmlns:serif="http://www.serif.com/" style="fill-rule:evenodd;clip-rule:evenodd;stroke-linejoin:round;stroke-miterlimit:2;"><rect id="mobile-menu-1" serif:id="mobile menu 1" x="-3078.56" y="-212.563" width="3508.33" height="6633.33" style="fill:none;"/><clipPath id="_clip1"><rect x="-3078.56" y="-212.563" width="3508.33" height="6633.33"/></clipPath><g clip-path="url(#_clip1)"><g id="mobile-nav" serif:id="mobile nav"><g id="hamburger"><path d="M171.441,-21.568c0,11.527 -9.358,20.885 -20.884,20.885l-199.898,0c-11.526,0 -20.884,-9.358 -20.884,-20.885c-0,-11.526 9.358,-20.884 20.884,-20.884l199.898,-0c11.526,-0 20.884,9.358 20.884,20.884Z" style="fill:#727272;"/><path d="M171.441,35.354c0,11.526 -9.358,20.884 -20.884,20.884l-199.898,0c-11.526,0 -20.884,-9.358 -20.884,-20.884c-0,-11.527 9.358,-20.885 20.884,-20.885l199.898,-0c11.526,-0 20.884,9.358 20.884,20.885Z" style="fill:#727272;"/><path d="M171.441,92.275c0,11.526 -9.358,20.884 -20.884,20.884l-199.898,0c-11.526,0 -20.884,-9.358 -20.884,-20.884c-0,-11.527 9.358,-20.885 20.884,-20.885l199.898,-0c11.526,-0 20.884,9.358 20.884,20.885Z" style="fill:#727272;"/></g></g><g id="mobile-menu" serif:id="mobile menu"><rect x="-3095.22" y="-212.563" width="3529.17" height="6633.33" style="fill:#fff;"/><g id="x"><path d="M162.278,5.605c7.473,7.472 7.473,19.606 0,27.079l-129.594,129.594c-7.473,7.473 -19.607,7.473 -27.079,0c-7.473,-7.473 -7.473,-19.606 -0,-27.079l129.594,-129.594c7.473,-7.473 19.606,-7.473 27.079,-0Z" style="fill:#727272;"/><path d="M162.278,162.278c-7.473,7.473 -19.606,7.473 -27.079,0l-129.594,-129.594c-7.473,-7.473 -7.473,-19.607 -0,-27.079c7.472,-7.473 19.606,-7.473 27.079,-0l129.594,129.594c7.473,7.473 7.473,19.606 0,27.079Z" style="fill:#727272;"/></g></g></g></svg>